<svg xmlns="http://www.w3.org/2000/svg" xmlns:xlink="http://www.w3.org/1999/xlink" width="570" zoomAndPan="magnify" viewBox="0 0 427.5 404.250001" height="539" preserveAspectRatio="xMidYMid meet" version="1.0"><defs><clipPath id="663aa281e1"><path d="M 0.144531 0 L 426.855469 0 L 426.855469 403.5 L 0.144531 403.5 Z M 0.144531 0 " clip-rule="nonzero"/></clipPath></defs><g clip-path="url(#663aa281e1)"><path fill="#ffffff" d="M 0.144531 0 L 426.855469 0 L 426.855469 403.5 L 0.144531 403.5 Z M 0.144531 0 " fill-opacity="1" fill-rule="nonzero"/><path fill="#497ed8" d="M 0.144531 0 L 426.855469 0 L 426.855469 403.5 L 0.144531 403.5 Z M 0.144531 0 " fill-opacity="1" fill-rule="nonzero"/></g><path fill="#ffffff" d="M 318.894531 328.894531 C 260.878906 376.117188 177.910156 378.941406 117.148438 335.789062 C 53.449219 290.539062 29.808594 206.800781 58.769531 135.882812 L 98.550781 156.449219 C 80.417969 204.734375 94.242188 259.21875 134.671875 293.144531 C 163.710938 317.503906 203.96875 326.5625 242.347656 317.363281 L 235.441406 288.507812 C 206.152344 295.53125 175.609375 288.769531 153.738281 270.421875 C 120.171875 242.257812 110.800781 195.410156 130.941406 156.5 L 137.761719 143.320312 L 45.46875 95.621094 L 38.648438 108.785156 C -6.152344 195.324219 20.210938 303.308594 99.964844 359.980469 C 147.203125 393.511719 205.789062 403.492188 259.8125 390.4375 C 287.699219 383.703125 314.355469 370.832031 337.617188 351.910156 C 344.503906 346.304688 350.867188 340.09375 356.945312 333.625 L 329.492188 319.441406 C 326.085938 322.726562 322.570312 325.910156 318.894531 328.894531 Z M 327.144531 38.394531 C 256.382812 -11.929688 159.339844 -9.246094 91.167969 44.949219 C 83.507812 51.042969 76.445312 57.820312 69.816406 64.90625 L 97.253906 79.089844 C 101.203125 75.273438 105.3125 71.601562 109.625 68.167969 C 167.527344 22.152344 249.886719 19.84375 309.949219 62.570312 C 373.570312 107.832031 397.167969 191.539062 371.40625 264.039062 L 331.617188 243.480469 C 346.550781 193.640625 332.796875 139.230469 292.503906 105.296875 C 262.691406 80.175781 221.460938 71.453125 182.089844 81.585938 L 189.183594 110.386719 C 219.128906 102.449219 250.941406 109.070312 273.398438 127.984375 C 306.855469 156.160156 316.171875 202.945312 296.0625 241.796875 L 289.242188 254.972656 L 381.546875 302.667969 L 388.355469 289.507812 C 433.121094 203.019531 406.808594 95.078125 327.144531 38.394531 " fill-opacity="1" fill-rule="nonzero"/></svg>