<svg
		xmlns="http://www.w3.org/2000/svg"
      width="24"
      height="24"
      viewBox="40 21 88 97"
      preserveAspectRatio="xMidYMid meet"
      version="1.0"
	  >
		<g clipPath="url(#5d09100ec1)">
		  <path
			fill="#00bf63"
			d="M 85.347656 118.527344 C 58.3125 118.527344 36.316406 96.53125 36.316406 69.496094 C 36.316406 42.460938 58.3125 20.464844 85.347656 20.464844 C 98.976562 20.464844 112.097656 26.207031 121.355469 36.214844 L 123.859375 38.925781 L 104.875 56.484375 L 102.367188 53.773438 C 97.925781 48.96875 91.882812 46.328125 85.347656 46.328125 C 72.570312 46.328125 62.175781 56.71875 62.175781 69.496094 C 62.175781 76.035156 64.972656 82.308594 69.847656 86.703125 L 64.902344 92.191406 C 58.476562 86.398438 54.789062 78.125 54.789062 69.496094 C 54.789062 52.644531 68.5 38.9375 85.347656 38.9375 C 92.71875 38.9375 99.617188 41.488281 105.125 46.191406 L 113.296875 38.632812 C 105.683594 31.746094 95.6875 27.855469 85.347656 27.855469 C 62.386719 27.855469 43.707031 46.535156 43.707031 69.496094 C 43.707031 92.457031 62.386719 111.136719 85.347656 111.136719 C 94.386719 111.136719 102.757812 108.453125 109.554688 103.382812 C 114.773438 99.484375 119.070312 93.628906 121.757812 87.152344 L 81.652344 87.121094 L 81.652344 61.800781 L 130.46875 61.800781 L 130.46875 69.191406 L 89.042969 69.191406 L 89.042969 79.769531 L 130.484375 79.8125 C 130.484375 79.8125 130.839844 84.6875 128.4375 90.335938 C 125.234375 97.925781 120.148438 104.691406 113.972656 109.300781 C 105.890625 115.335938 95.992188 118.527344 85.347656 118.527344 "
			fillOpacity="1"
			fillRule="nonzero"
		  />
		</g>
	  </svg>