<svg xmlns="http://www.w3.org/2000/svg" xmlns:xlink="http://www.w3.org/1999/xlink" viewBox="0 0 100 125" version="1.1" x="0px" y="0px"><title>13</title><desc>Created with Sketch.</desc><g stroke="none" stroke-width="1" fill="none" fill-rule="evenodd"><g fill="#000000"><path d="M30.3209452,36.0013725 C30.7720177,36.0013725 31.2252504,35.8470588 31.5952202,35.5315686 C32.4199936,34.8284314 32.5177881,33.5907843 31.8133924,32.7672549 C29.1099029,29.6064706 27.6209906,25.575098 27.6209906,21.4158824 C27.6209906,11.7694118 35.4806884,3.92156863 45.1417307,3.92156863 C54.802773,3.92156863 62.6624709,11.7694118 62.6624709,21.4158824 C62.6624709,25.575098 61.1735585,29.6064706 58.4700691,32.7668627 C57.7658697,33.5903922 57.8632715,34.8280392 58.6880449,35.5313725 C59.5130147,36.2347059 60.7525313,36.1370588 61.4565344,35.3139216 C64.7668214,31.4437255 66.5899634,26.5080392 66.5899634,21.4158824 C66.5899634,9.60705882 56.968196,0 45.1417307,0 C33.3150691,0 23.6934981,9.60705882 23.6934981,21.4158824 C23.6934981,26.5080392 25.5164437,31.4437255 28.8267307,35.3139216 C29.2151597,35.7682353 29.7663833,36.0013725 30.3209452,36.0013725 M77.3480721,78.0154902 C76.9205646,82.4068627 75.1838274,86.5382353 72.4577549,89.6492157 C68.719764,93.9152941 63.5555041,96.0784314 57.1083289,96.0784314 C45.3185857,96.0784314 38.3025132,85.935098 38.2351567,85.8358824 C38.2110026,85.7998039 38.1854739,85.7645098 38.1589634,85.7301961 C33.1893108,79.3060784 24.4848093,63.2876471 21.9350812,58.5313725 C21.921335,58.5054902 21.9258516,58.4719608 21.9321356,58.4539216 C24.5044467,57.0031373 27.684341,57.7247059 29.5035555,60.1747059 L38.3201869,72.0482353 C38.8246733,72.7276471 39.7087519,73.0076471 40.5134951,72.7423529 C41.3178455,72.4770588 41.8614105,71.7264706 41.8614105,70.8803922 L41.8614105,21.6978431 C41.8614105,20.6960784 42.2541597,19.7405882 42.9391144,19.0764706 C43.5415918,18.4919608 44.3094165,18.1831373 45.120051,18.2064706 C46.8206552,18.2558824 48.2043108,19.8729412 48.2043108,21.8111765 L48.2043108,47.6378431 L48.2043108,52.5903922 C48.2043108,53.6733333 49.08348,54.5511765 50.168057,54.5511765 C51.2524377,54.5511765 52.1318032,53.6733333 52.1318032,52.5903922 L52.1318032,47.692549 C52.2046582,45.8186275 53.5926341,44.3527451 55.298344,44.3527451 C57.04706,44.3527451 58.4697942,45.9196078 58.4697942,47.8452941 L58.4697942,54.4464706 C58.4697942,55.5294118 59.3491597,56.4072549 60.4335404,56.4072549 C61.5181174,56.4072549 62.3972866,55.5294118 62.3972866,54.4464706 C62.3972866,52.5207843 63.8200208,50.9539216 65.5689331,50.9539216 C67.3176492,50.9539216 68.7401869,52.5207843 68.7401869,54.4464706 L68.7401869,59.7576471 C68.7401869,60.0019608 68.7859422,60.2443137 68.8752927,60.4719608 L68.9695525,60.7127451 C69.2896431,61.5294118 70.1128455,62.0354902 70.9878909,61.95 C71.8619543,61.8652941 72.5738123,61.2113725 72.7303229,60.3484314 C73.0256703,58.7241176 74.3329362,57.545098 75.8391295,57.545098 C77.5621205,57.545098 78.9685555,59.0656863 79.0097942,60.9521569 L77.3480721,78.0154902 Z M75.8391295,53.6235294 C79.7536612,53.6235294 82.9382685,56.9494118 82.9382685,61.0376471 C82.9382685,61.1009804 82.9351265,61.1643137 82.9290389,61.227451 L81.2571054,78.395098 C80.7508516,83.595098 78.6755646,88.5090196 75.4133893,92.2313725 C70.9605948,97.3135294 64.6306552,100 57.1083289,100 C43.5433591,100 35.7103682,89.0907843 35.0144165,88.0803922 C29.9964558,81.5729412 21.7785706,66.5498039 18.4726038,60.3817647 C17.4602927,58.4933333 18.1281628,56.1068627 19.9609271,55.0619608 C24.2905948,52.5935294 29.6306099,53.7615686 32.6587066,57.8392157 L37.933918,64.9435294 L37.933918,21.6978431 C37.933918,19.642549 38.7608516,17.6617647 40.2028304,16.2633333 C41.5735253,14.9339216 43.3636764,14.2313725 45.234341,14.2864706 C49.0375283,14.3970588 52.1318032,17.7727451 52.1318032,21.8111765 L52.1318032,41.2005882 C53.0844165,40.707451 54.159764,40.4311765 55.298344,40.4311765 C59.2026643,40.4311765 62.3809875,43.7403922 62.3972866,47.8143137 C63.3522564,47.3141176 64.4295676,47.0323529 65.5687368,47.0323529 C69.4697186,47.0323529 72.6458818,50.3360784 72.667483,54.404902 C73.6279513,53.9033333 74.7074226,53.6235294 75.8391295,53.6235294 Z M54.0514044,30.2170588 C53.1657549,29.5919608 52.9552413,28.3684314 53.5810872,27.4841176 C54.8156945,25.74 55.4682473,23.6862745 55.4682473,21.5456863 C55.4682473,15.8601961 50.83577,11.2347059 45.1416915,11.2347059 C39.4476129,11.2347059 34.8151356,15.8601961 34.8151356,21.5456863 C34.8151356,23.7170588 35.4843803,25.7943137 36.7504075,27.5529412 C37.3835193,28.4321569 37.1828244,29.657451 36.3020842,30.2896078 C35.9552866,30.5386275 35.554486,30.6582353 35.1576129,30.6584314 C34.5468878,30.6584314 33.9449996,30.374902 33.5612836,29.8419608 C31.8121748,27.4123529 30.8876431,24.5435294 30.8876431,21.5456863 C30.8876431,13.6978431 37.2817972,7.31313725 45.1416915,7.31313725 C53.0013893,7.31313725 59.3957398,13.6978431 59.3957398,21.5456863 C59.3957398,24.5013725 58.4941839,27.337451 56.7884739,29.747451 C56.162628,30.6317647 54.937054,30.8421569 54.0514044,30.2170588 Z"/></g></g></svg>
